<svg xmlns="http://www.w3.org/2000/svg" width="21.097" height="21.054" viewBox="0 0 21.097 21.054"><defs><style>.a,.d{fill:#ffe14d;}.b{fill:#fb3;}.c{fill:#e68a2e;}.d{font-size:12px;font-family:Helvetica-Bold, Helvetica;font-weight:700;}</style></defs><g transform="translate(-0.286 0.01)"><circle class="a" cx="10.5" cy="10.5" r="10.5" transform="translate(0.286 -0.01)"/><path class="b" d="M266.692,10.522A10.62,10.62,0,0,0,256,0V21.044A10.62,10.62,0,0,0,266.692,10.522Z" transform="translate(-245.308)"/><g transform="translate(2.548 2.548)"><path class="b" d="M69.144,77.288a8.144,8.144,0,1,1,8.144-8.144A8.153,8.153,0,0,1,69.144,77.288Z" transform="translate(-61 -61)"/></g><path class="c" d="M264.144,69.144A8.153,8.153,0,0,0,256,61V77.288A8.153,8.153,0,0,0,264.144,69.144Z" transform="translate(-245.308 -58.452)"/><text class="d" transform="translate(6.286 5.99)"><tspan x="0" y="9">C</tspan></text></g></svg>